<?xml version="1.0" encoding="UTF-8" standalone="no"?>
<svg
   width="828.04865mm"
   height="715.30774mm"
   viewBox="0 0 828.04864 715.30774"
   version="1.1"
   id="svg8"
   sodipodi:docname="structure.svg"
   inkscape:version="1.1 (c4e8f9ed74, 2021-05-24)"
   xmlns:inkscape="http://www.inkscape.org/namespaces/inkscape"
   xmlns:sodipodi="http://sodipodi.sourceforge.net/DTD/sodipodi-0.dtd"
   xmlns="http://www.w3.org/2000/svg"
   xmlns:svg="http://www.w3.org/2000/svg"
   xmlns:rdf="http://www.w3.org/1999/02/22-rdf-syntax-ns#"
   xmlns:cc="http://creativecommons.org/ns#"
   xmlns:dc="http://purl.org/dc/elements/1.1/">
  <defs
     id="defs2">
    <rect
       x="1289.8124"
       y="2967.8076"
       width="934.45251"
       height="169.23694"
       id="rect47602" />
    <marker
       style="overflow:visible"
       id="marker1530"
       refX="0"
       refY="0"
       orient="auto"
       inkscape:stockid="Arrow2Mend"
       inkscape:isstock="true">
      <path
         transform="scale(-0.6)"
         d="M 8.7185878,4.0337352 -2.2072895,0.01601326 8.7185884,-4.0017078 c -1.7454984,2.3720609 -1.7354408,5.6174519 -6e-7,8.035443 z"
         style="fill:#008080;fill-opacity:0.992157;fill-rule:evenodd;stroke:#008080;stroke-width:0.625;stroke-linejoin:round;stroke-opacity:0.992157"
         id="path1528" />
    </marker>
    <marker
       style="overflow:visible"
       id="Arrow2Mend"
       refX="0"
       refY="0"
       orient="auto"
       inkscape:stockid="Arrow2Mend"
       inkscape:isstock="true"
       inkscape:collect="always">
      <path
         transform="scale(-0.6)"
         d="M 8.7185878,4.0337352 -2.2072895,0.01601326 8.7185884,-4.0017078 c -1.7454984,2.3720609 -1.7354408,5.6174519 -6e-7,8.035443 z"
         style="fill:#008080;fill-opacity:0.992157;fill-rule:evenodd;stroke:#008080;stroke-width:0.625;stroke-linejoin:round;stroke-opacity:0.992157"
         id="path1189" />
    </marker>
    <marker
       style="overflow:visible"
       id="Arrow1Mend"
       refX="0"
       refY="0"
       orient="auto"
       inkscape:stockid="Arrow1Mend"
       inkscape:isstock="true">
      <path
         transform="matrix(-0.4,0,0,-0.4,-4,0)"
         style="fill:#008080;fill-opacity:0.992157;fill-rule:evenodd;stroke:#008080;stroke-width:1pt;stroke-opacity:0.992157"
         d="M 0,0 5,-5 -12.5,0 5,5 Z"
         id="path1171" />
    </marker>
    <marker
       style="overflow:visible"
       id="Arrow1Lend"
       refX="0"
       refY="0"
       orient="auto"
       inkscape:stockid="Arrow1Lend"
       inkscape:isstock="true">
      <path
         transform="matrix(-0.8,0,0,-0.8,-10,0)"
         style="fill:#008080;fill-opacity:0.992157;fill-rule:evenodd;stroke:#008080;stroke-width:1pt;stroke-opacity:0.992157"
         d="M 0,0 5,-5 -12.5,0 5,5 Z"
         id="path1165" />
    </marker>
    <marker
       style="overflow:visible"
       id="Arrow2Mend-9"
       refX="0"
       refY="0"
       orient="auto"
       inkscape:stockid="Arrow2Mend"
       inkscape:isstock="true"
       inkscape:collect="always">
      <path
         transform="scale(-0.6)"
         d="M 8.7185878,4.0337352 -2.2072895,0.01601326 8.7185884,-4.0017078 c -1.7454984,2.3720609 -1.7354408,5.6174519 -6e-7,8.035443 z"
         style="fill:#008080;fill-opacity:0.992157;fill-rule:evenodd;stroke:#008080;stroke-width:0.625;stroke-linejoin:round;stroke-opacity:0.992157"
         id="path1189-4" />
    </marker>
  </defs>
  <sodipodi:namedview
     id="base"
     pagecolor="#ffffff"
     bordercolor="#666666"
     borderopacity="1.0"
     inkscape:pageopacity="0.0"
     inkscape:pageshadow="2"
     inkscape:zoom="0.2799099"
     inkscape:cx="1212.8903"
     inkscape:cy="1845.2366"
     inkscape:document-units="mm"
     inkscape:current-layer="layer1"
     inkscape:document-rotation="0"
     showgrid="false"
     inkscape:window-width="1920"
     inkscape:window-height="1015"
     inkscape:window-x="0"
     inkscape:window-y="0"
     inkscape:window-maximized="1"
     fit-margin-top="0"
     fit-margin-left="0"
     fit-margin-right="0"
     fit-margin-bottom="0"
     inkscape:pagecheckerboard="0" />
  <metadata
     id="metadata5">
    <rdf:RDF>
      <cc:Work
         rdf:about="">
        <dc:format>image/svg+xml</dc:format>
        <dc:type
           rdf:resource="http://purl.org/dc/dcmitype/StillImage" />
      </cc:Work>
    </rdf:RDF>
  </metadata>
  <g
     inkscape:label="Layer 1"
     inkscape:groupmode="layer"
     id="layer1"
     transform="translate(93.534546,-54.813284)">
    <path
       style="fill:none;fill-opacity:1;stroke:#008080;stroke-width:3.3573;stroke-linecap:round;stroke-linejoin:bevel;stroke-miterlimit:4;stroke-dasharray:none;stroke-opacity:0.992157"
       d="M 431.77791,330.83191 H 356.76735 V 290.31075"
       id="path1100"
       sodipodi:nodetypes="ccc" />
    <path
       style="fill:none;stroke:#008080;stroke-width:3;stroke-linecap:round;stroke-linejoin:round;stroke-miterlimit:4;stroke-dasharray:none;stroke-opacity:0.992157;marker-end:url(#Arrow2Mend)"
       d="m 206,142.07422 84,-78.933059 v 0 l 86,80.160889"
       id="path1110"
       sodipodi:nodetypes="cccc" />
    <g
       id="g1822"
       transform="matrix(0.00825771,0,0,-0.00402313,53.645824,130.91185)">
      <path
         d="m 10247.9,7262.4 c -8.3,-525.1 -1700.55,-924.3 -3779.6,-890.9 -2078.96,33.2 -3757.88,486.2 -3749.59,1011.4 0,0 46.79,2912.6 47.01,2925.9 897.97,-14.5 6884.23,22.2 7529.08,-120.4 -0.3,-13.4 -27.4,-2946.2 -46.9,-2926"
         style="fill:#3c6983;fill-opacity:1;fill-rule:nonzero;stroke:none"
         id="path1824" />
      <path
         d="m 10295.2,10214.6 c -8.4,-525.4 -1700.54,-924 -3779.79,-890.7 -2079.1,33.1 -3757.63,486 -3749.32,1011.1 8.35,525.3 1700.81,924.1 3779.75,890.8 2079.29,-33.2 3757.66,-486.2 3749.36,-1011.2"
         style="fill:#243e4d;fill-opacity:1;fill-rule:nonzero;stroke:none"
         id="path1826" />
      <path
         d="m 9964.07,10532.9 c -7.6,-478.2 -1548.7,-841.6 -3441.77,-811.1 -1893.52,30.2 -3421.99,442.7 -3414.34,920.9 0,0 43.39,2723 43.78,2735 817.58,-12.9 6268.9,20.6 6856.26,-109.8 -0.3,-11.8 -26.05,-2753.3 -43.93,-2735"
         style="fill:#39bdc0;fill-opacity:1;fill-rule:nonzero;stroke:none"
         id="path1828" />
      <path
         d="m 10309.6,11106.3 c -8.5,-525.3 -1700.81,-924.2 -3779.94,-891.1 -2078.89,33.2 -3757.63,485.8 -3749.35,1011.5 0,0 46.63,2912.4 46.8,2926 898.12,-14.5 6884.35,22.3 7529.19,-120.8 -0.3,-13.3 -27.5,-2945.8 -46.7,-2925.6"
         style="fill:#3c6983;fill-opacity:1;fill-rule:nonzero;stroke:none"
         id="path1830" />
      <path
         d="m 10356.7,14058.6 c -8.3,-525.4 -1700.61,-924.1 -3779.68,-890.9 -2079.28,32.9 -3757.85,485.9 -3749.37,1010.9 8.23,525.4 1700.69,924.4 3779.62,891.4 2079.06,-33.7 3757.83,-486.3 3749.43,-1011.4"
         style="fill:#243e4d;fill-opacity:1;fill-rule:nonzero;stroke:none"
         id="path1832" />
      <g
         id="g1834"
         transform="scale(1.0578)">
        <path
           d="m 9477.87,13591 c -7.18,-451.9 -1464.09,-795.3 -3253.88,-766.8 -1789.83,28.8 -3235.01,418.8 -3227.78,870.6 0,0 41.27,2574.4 41.39,2585.8 773.07,-12.6 5926.36,19.4 6481.68,-103.8 -0.29,-11.5 -24.67,-2602.9 -41.41,-2585.8"
           style="fill:#39bdc0;fill-opacity:1;fill-rule:nonzero;stroke:none"
           id="path1836" />
      </g>
      <g
         id="g1838"
         transform="scale(1.10546)">
        <path
           d="m 9381.63,13523.9 c -7.59,-475.2 -1538.59,-836 -3419.26,-806 -1880.61,30 -3399.05,439.5 -3391.61,914.5 0,0 42.23,2635.1 42.28,2647.1 812.24,-12.8 6227.43,20.5 6811.02,-108.9 -0.36,-12 -24.79,-2665.1 -42.43,-2646.7"
           style="fill:#3c6983;fill-opacity:1;fill-rule:nonzero;stroke:none"
           id="path1840" />
      </g>
      <g
         id="g1842"
         transform="scale(1.16236)">
        <path
           d="m 8962.96,15401.8 c -7.32,-452.1 -1463.07,-795.3 -3251.79,-766.9 -1788.68,28.7 -3232.93,418.3 -3225.66,870.2 7.1,451.8 1463.15,794.9 3251.8,766.4 1788.65,-28.6 3232.79,-418 3225.65,-869.7"
           style="fill:#243e4d;fill-opacity:1;fill-rule:nonzero;stroke:none"
           id="path1844" />
      </g>
      <g
         id="g1846"
         transform="scale(1.13753)">
        <path
           d="m 8067.12,15755.2 c -4.46,-270.7 -1000.81,-474 -2225.9,-454.5 -1224.85,19.6 -2214.31,254.9 -2209.98,525.3 4.44,270.8 1000.8,474 2225.74,454.6 1224.94,-19.6 2214.42,-255.1 2210.14,-525.4"
           style="fill:#1d1b1f;fill-opacity:1;fill-rule:nonzero;stroke:none"
           id="path1848" />
      </g>
      <g
         id="g1850"
         transform="scale(1.12706)">
        <path
           d="m 16258.5,6443.7 c -7.5,-465.91 -1508.9,-820.11 -3353.5,-790.47 -1844.7,29.45 -3334.31,431.39 -3326.94,897.38 0,0 41.52,2584.26 41.7,2596.06 796.74,-12.87 6108.14,19.7 6680.24,-106.83 -0.2,-11.89 -24.2,-2614.07 -41.5,-2596.14"
           style="fill:#3c6983;fill-opacity:1;fill-rule:nonzero;stroke:none"
           id="path1852" />
      </g>
      <g
         id="g1854"
         transform="scale(1.12759)">
        <path
           d="m 16292.7,9058.8 c -7.5,-465.95 -1508.1,-819.45 -3352.1,-789.92 -1843.8,29.36 -3332.4,431.01 -3325.04,896.69 7.36,465.87 1508.34,819.51 3352.04,790.04 1844,-29.47 3332.4,-431.22 3325.1,-896.81"
           style="fill:#243e4d;fill-opacity:1;fill-rule:nonzero;stroke:none"
           id="path1856" />
      </g>
      <g
         id="g1858"
         transform="scale(1.10946)">
        <path
           d="m 16260.4,9493.72 c -6.8,-431.03 -1395.9,-758.57 -3102.1,-731.08 -1706.8,27.22 -3084.4,399.02 -3077.5,830.04 0,0 39.1,2454.32 39.4,2465.22 737,-11.7 5650.4,18.5 6179.8,-99 -0.2,-10.6 -23.4,-2481.68 -39.6,-2465.18"
           style="fill:#39bdc0;fill-opacity:1;fill-rule:nonzero;stroke:none"
           id="path1860" />
      </g>
      <g
         id="g1862"
         transform="scale(1.13083)">
        <path
           d="m 16258.7,9821.33 c -7.5,-464.52 -1504,-817.27 -3342.7,-788 -1838.3,29.36 -3322.82,429.59 -3315.48,894.49 0,0 41.21,2575.48 41.39,2587.48 794.19,-12.9 6087.79,19.7 6658.09,-106.8 -0.3,-11.8 -24.3,-2605.03 -41.3,-2587.17"
           style="fill:#3c6983;fill-opacity:1;fill-rule:nonzero;stroke:none"
           id="path1864" />
      </g>
      <g
         id="g1866"
         transform="scale(1.13137)">
        <path
           d="m 16292.5,12426.1 c -7.3,-464.4 -1503.1,-816.8 -3340.7,-787.5 -1837.9,29.1 -3321.56,429.5 -3314.05,893.6 7.33,464.4 1503.25,817.1 3340.75,787.9 1837.6,-29.8 3321.5,-429.9 3314,-894"
           style="fill:#243e4d;fill-opacity:1;fill-rule:nonzero;stroke:none"
           id="path1868" />
      </g>
      <g
         id="g1870"
         transform="scale(1.11323)">
        <path
           d="m 16260.7,12914.3 c -6.9,-429.4 -1391.2,-755.7 -3091.8,-728.7 -1700.8,27.4 -3074,398 -3067.1,827.3 0,0 39.2,2446.2 39.3,2457 734.6,-11.9 5631.3,18.5 6158.9,-98.7 -0.3,-10.8 -23.4,-2473.2 -39.3,-2456.9"
           style="fill:#39bdc0;fill-opacity:1;fill-rule:nonzero;stroke:none"
           id="path1872" />
      </g>
      <g
         id="g1874"
         transform="scale(1.13461)">
        <path
           d="m 16258.7,13176.4 c -7.4,-462.9 -1499.1,-814.5 -3331.4,-785.2 -1832.3,29.2 -3311.73,428.2 -3304.5,890.9 0,0 41.16,2567.4 41.25,2579.1 791.35,-12.4 6067.35,20 6635.95,-106.1 -0.3,-11.6 -24.1,-2596.6 -41.3,-2578.7"
           style="fill:#3c6983;fill-opacity:1;fill-rule:nonzero;stroke:none"
           id="path1876" />
      </g>
      <g
         id="g1878"
         transform="scale(1.16236)">
        <path
           d="m 15911.1,15401.8 c -7.3,-452.1 -1463,-795.3 -3251.8,-766.9 -1788.7,28.7 -3232.89,418.3 -3225.66,870.2 7.14,451.8 1463.16,794.9 3251.86,766.4 1788.7,-28.6 3232.7,-418 3225.6,-869.7"
           style="fill:#243e4d;fill-opacity:1;fill-rule:nonzero;stroke:none"
           id="path1880" />
      </g>
      <g
         id="g1882"
         transform="scale(1.13753)">
        <path
           d="m 15166.9,15755.2 c -4.5,-270.7 -1000.8,-474 -2225.8,-454.5 -1224.9,19.6 -2214.4,254.9 -2210.1,525.3 4.5,270.8 1000.9,474 2225.8,454.6 1224.9,-19.6 2214.4,-255.1 2210.1,-525.4"
           style="fill:#1d1b1f;fill-opacity:1;fill-rule:nonzero;stroke:none"
           id="path1884" />
      </g>
      <path
         d="m 14286.1,3204.3 c -8.4,-525.1 -1700.6,-924.3 -3779.7,-890.9 -2078.93,33.2 -3757.84,486.2 -3749.55,1011.3 0,0 46.79,2912.6 47.01,2925.9 897.97,-14.4 6884.24,22.3 7529.04,-120.4 -0.2,-13.3 -27.4,-2946.2 -46.8,-2925.9"
         style="fill:#16262e;fill-opacity:1;fill-rule:nonzero;stroke:none"
         id="path1886" />
      <path
         d="m 14333.4,6156.5 c -8.5,-525.4 -1700.6,-924.1 -3779.9,-890.8 -2079.06,33.2 -3757.58,486.1 -3749.27,1011.2 8.35,525.3 1700.81,924 3779.77,890.8 2079.3,-33.2 3757.6,-486.2 3749.4,-1011.2"
         style="fill:#25404f;fill-opacity:1;fill-rule:nonzero;stroke:none"
         id="path1888" />
      <path
         d="m 14002.2,6474.8 c -7.6,-478.2 -1548.7,-841.6 -3441.8,-811.1 -1893.49,30.1 -3421.95,442.7 -3414.3,920.9 0,0 43.38,2722.9 43.77,2735 817.58,-13 6268.93,20.6 6856.23,-109.8 -0.2,-11.8 -26,-2753.3 -43.9,-2735"
         style="fill:#39bdc0;fill-opacity:1;fill-rule:nonzero;stroke:none"
         id="path1890" />
      <path
         d="m 14347.7,7048.1 c -8.4,-525.4 -1700.8,-924.2 -3779.9,-891.1 -2078.89,33.3 -3757.63,485.9 -3749.33,1011.6 0,0 46.61,2912.4 46.78,2925.9 898.11,-14.5 6884.35,22.4 7529.25,-120.7 -0.4,-13.3 -27.5,-2945.8 -46.8,-2925.7"
         style="fill:#16262e;fill-opacity:1;fill-rule:nonzero;stroke:none"
         id="path1892" />
      <path
         d="m 14394.8,10000.4 c -8.3,-525.4 -1700.6,-924 -3779.6,-890.9 -2079.32,32.9 -3757.9,486 -3749.41,1011 8.23,525.4 1700.68,924.4 3779.61,891.4 2079.1,-33.8 3757.8,-486.4 3749.4,-1011.5"
         style="fill:#25404f;fill-opacity:1;fill-rule:nonzero;stroke:none"
         id="path1894" />
      <path
         d="m 14063.9,10318.5 c -7.7,-478.1 -1548.8,-841.3 -3442,-811.2 -1893.31,30.5 -3422.02,443 -3414.36,921 0,0 43.65,2723.2 43.77,2735.2 817.75,-13.3 6268.89,20.5 6856.29,-109.9 -0.3,-12 -26.1,-2753.3 -43.7,-2735.1"
         style="fill:#39bdc0;fill-opacity:1;fill-rule:nonzero;stroke:none"
         id="path1896" />
      <path
         d="m 14409.1,10891.8 c -8.4,-525.1 -1700.8,-924 -3779.8,-890.8 -2078.95,33.1 -3757.52,485.8 -3749.29,1010.9 0,0 46.68,2913 46.72,2926.1 897.9,-14 6884.17,22.8 7529.27,-120.2 -0.3,-13.3 -27.4,-2946.2 -46.9,-2926"
         style="fill:#16262e;fill-opacity:1;fill-rule:nonzero;stroke:none"
         id="path1898" />
      <path
         d="m 14456.4,13844.3 c -8.5,-525.4 -1700.7,-924.4 -3779.8,-891.4 -2079.12,33.4 -3757.86,486.2 -3749.41,1011.5 8.26,525.1 1700.72,924 3779.81,890.8 2079,-33.2 3757.6,-485.8 3749.4,-1010.9"
         style="fill:#25404f;fill-opacity:1;fill-rule:nonzero;stroke:none"
         id="path1900" />
      <path
         d="m 13214.8,13864 c -5.1,-307.9 -1138.5,-539.3 -2532.1,-517.1 -1393.29,22.4 -2518.83,290 -2513.88,597.5 5.04,308.2 1138.43,539.3 2531.88,517.3 1393.4,-22.3 2518.9,-290.3 2514.1,-597.7"
         style="fill:#1d1b1f;fill-opacity:1;fill-rule:nonzero;stroke:none"
         id="path1902" />
    </g>
    <rect
       style="opacity:0.416856;fill:#008080;fill-opacity:0.556381;stroke:#cbe4f9;stroke-width:0;stroke-opacity:0.984314"
       id="rect10-3"
       width="137.40237"
       height="93.195595"
       x="73.160515"
       y="136.35876" />
    <rect
       style="opacity:0.990172;fill:#800000;fill-opacity:1;stroke:#cbe4f9;stroke-width:0;stroke-opacity:0.984314"
       id="rect41"
       width="131.44373"
       height="13.062713"
       x="75.283676"
       y="142.07422" />
    <text
       xml:space="preserve"
       style="font-style:normal;font-weight:normal;font-size:10.5833px;line-height:1.25;font-family:sans-serif;letter-spacing:0px;word-spacing:0px;fill:#ffffff;fill-opacity:1;stroke:none;stroke-width:0.264583"
       x="117.07298"
       y="152.27792"
       id="text868"><tspan
         sodipodi:role="line"
         id="tspan866"
         x="117.07298"
         y="152.27792"
         style="fill:#ffffff;stroke-width:0.264583">DataBase</tspan></text>
    <rect
       style="opacity:0.990172;fill:#008080;fill-opacity:1;stroke:#cbe4f9;stroke-width:0;stroke-opacity:0.984314"
       id="rect940-6-1-8-2"
       width="151.25729"
       height="112.81054"
       x="563.96344"
       y="185.67563"
       ry="10.483376" />
    <rect
       style="opacity:0.990172;fill:#008080;fill-opacity:1;stroke:#cbe4f9;stroke-width:0;stroke-opacity:0.984314"
       id="rect940-6-1-8"
       width="151.25729"
       height="112.81054"
       x="563.96344"
       y="65.986015"
       ry="10.483376" />
    <text
       xml:space="preserve"
       style="font-style:normal;font-weight:normal;font-size:10.5833px;line-height:1.25;font-family:sans-serif;letter-spacing:0px;word-spacing:0px;fill:#ffff00;fill-opacity:1;stroke:none;stroke-width:0.264583"
       x="571.27429"
       y="203.4248"
       id="text1724-3"><tspan
         id="tspan1722-7"
         x="571.27429"
         y="203.4248"
         style="fill:#ffff00;stroke-width:0.264583"
         sodipodi:role="line" /><tspan
         x="571.27429"
         y="216.65393"
         style="font-size:7.05556px;fill:#ffff00;stroke-width:0.264583"
         id="tspan1728-5"
         sodipodi:role="line">1- Nucleation Rate  </tspan><tspan
         x="571.27429"
         y="229.88306"
         style="font-size:7.05556px;fill:#ffff00;stroke-width:0.264583"
         id="tspan1730-9"
         sodipodi:role="line">2- Diffusion Energy</tspan><tspan
         x="571.27429"
         y="243.11218"
         style="font-size:7.05556px;fill:#ffff00;stroke-width:0.264583"
         sodipodi:role="line"
         id="tspan1734-2">3- Hydrogen diffusivity</tspan></text>
    <rect
       style="opacity:0.990172;fill:#800000;fill-opacity:1;stroke:#cbe4f9;stroke-width:0;stroke-opacity:0.984314"
       id="rect41-0-2"
       width="151.7222"
       height="13.062713"
       x="563.4986"
       y="193.61301" />
    <text
       xml:space="preserve"
       style="font-style:normal;font-weight:normal;font-size:10.5833px;line-height:1.25;font-family:sans-serif;letter-spacing:0px;word-spacing:0px;fill:#ffd5d5;fill-opacity:1;stroke:none;stroke-width:0.264583"
       x="570.27374"
       y="203.39557"
       id="text1758-8"><tspan
         sodipodi:role="line"
         id="tspan1756-9"
         x="570.27374"
         y="203.39557"
         style="fill:#ffd5d5;stroke-width:0.264583">Molecular-Dynamics</tspan></text>
    <rect
       style="opacity:0.990172;fill:#800000;fill-opacity:1;stroke:#cbe4f9;stroke-width:0;stroke-opacity:0.984314"
       id="rect41-5"
       width="133.26071"
       height="13.062713"
       x="375.86621"
       y="143.30205" />
    <text
       xml:space="preserve"
       style="font-style:normal;font-weight:normal;font-size:10.5833px;line-height:1.25;font-family:sans-serif;letter-spacing:0px;word-spacing:0px;fill:#ffffff;fill-opacity:1;stroke:none;stroke-width:0.264583"
       x="418.03986"
       y="153.50575"
       id="text868-3"><tspan
         sodipodi:role="line"
         id="tspan866-5"
         x="418.03986"
         y="153.50575"
         style="fill:#ffffff;stroke-width:0.264583">Calculator</tspan></text>
    <g
       id="g1665"
       transform="translate(0.44539266,0.74447753)">
      <rect
         style="opacity:0.990172;fill:#008080;fill-opacity:1;stroke:#cbe4f9;stroke-width:0;stroke-opacity:0.984314"
         id="rect940"
         width="31.930021"
         height="30.413435"
         x="75"
         y="159.89937" />
      <rect
         style="opacity:0.990172;fill:#008080;fill-opacity:1;stroke:#cbe4f9;stroke-width:0;stroke-opacity:0.984314"
         id="rect940-6"
         width="37.076843"
         height="30.413435"
         x="109.06158"
         y="160.28542" />
      <rect
         style="opacity:0.990172;fill:#008080;fill-opacity:1;stroke:#cbe4f9;stroke-width:0;stroke-opacity:0.984314"
         id="rect940-6-2"
         width="57.738617"
         height="30.413435"
         x="148.33316"
         y="160.1165" />
      <text
         xml:space="preserve"
         style="font-style:normal;font-weight:normal;font-size:10.5833px;line-height:1.25;font-family:sans-serif;letter-spacing:0px;word-spacing:0px;fill:#ffffff;fill-opacity:1;stroke:none;stroke-width:0.264583"
         x="81.029137"
         y="177.67876"
         id="text1023"><tspan
           sodipodi:role="line"
           id="tspan1021"
           x="81.029137"
           y="177.67876"
           style="fill:#ffffff;stroke-width:0.264583">Bulk</tspan></text>
      <text
         xml:space="preserve"
         style="font-style:normal;font-weight:normal;font-size:10.5833px;line-height:1.25;font-family:sans-serif;letter-spacing:0px;word-spacing:0px;fill:#ffffff;fill-opacity:1;stroke:none;stroke-width:0.264583"
         x="117.13151"
         y="178.73747"
         id="text1023-7"><tspan
           sodipodi:role="line"
           id="tspan1021-0"
           x="117.13151"
           y="178.73747"
           style="fill:#ffffff;stroke-width:0.264583">Surf</tspan></text>
      <text
         xml:space="preserve"
         style="font-style:normal;font-weight:normal;font-size:10.5833px;line-height:1.25;font-family:sans-serif;letter-spacing:0px;word-spacing:0px;fill:#ffffff;fill-opacity:1;stroke:none;stroke-width:0.264583"
         x="152.68773"
         y="179.18152"
         id="text1023-7-9"><tspan
           sodipodi:role="line"
           id="tspan1021-0-3"
           x="152.68773"
           y="179.18152"
           style="fill:#ffffff;stroke-width:0.264583">Interface</tspan></text>
    </g>
    <g
       id="g2078">
      <rect
         style="opacity:0.990172;fill:#008080;fill-opacity:1;stroke:#008080;stroke-width:0;stroke-linecap:round;stroke-linejoin:round;stroke-miterlimit:4;stroke-dasharray:none;stroke-opacity:0.992157"
         id="rect1120-6"
         width="138.60728"
         height="35.301956"
         x="226.57822"
         y="277.72131"
         ry="8.3556566" />
    </g>
    <g
       id="g2075">
      <rect
         style="opacity:0.990172;fill:#008080;fill-opacity:1;stroke:#29b2c6;stroke-width:0;stroke-linecap:round;stroke-linejoin:round;stroke-miterlimit:4;stroke-dasharray:none;stroke-opacity:1"
         id="rect1120"
         width="138.60728"
         height="35.301956"
         x="224.89984"
         y="59.325691"
         ry="8.3556566" />
      <text
         xml:space="preserve"
         style="font-style:normal;font-weight:normal;font-size:14.1111px;line-height:1.25;font-family:sans-serif;letter-spacing:0px;word-spacing:0px;fill:#000000;fill-opacity:1;stroke:none;stroke-width:0.264583"
         x="256.00803"
         y="77.962044"
         id="text1602"><tspan
           sodipodi:role="line"
           id="tspan1600"
           x="256.00803"
           y="77.962044"
           style="font-size:14.1111px;fill:#f2f2f2;stroke-width:0.264583">Convertor</tspan></text>
    </g>
    <text
       xml:space="preserve"
       style="font-style:normal;font-weight:normal;font-size:14.1111px;line-height:1.25;font-family:sans-serif;letter-spacing:0px;word-spacing:0px;fill:#000000;fill-opacity:1;stroke:none;stroke-width:0.264583"
       x="249.52876"
       y="300.03833"
       id="text1602-2"><tspan
         sodipodi:role="line"
         id="tspan1600-6"
         x="249.52876"
         y="300.03833"
         style="font-size:14.1111px;fill:#f2f2f2;stroke-width:0.264583">Post-Process</tspan></text>
    <rect
       style="opacity:0.990172;fill:#008080;fill-opacity:1;stroke:#cbe4f9;stroke-width:0;stroke-opacity:0.984314"
       id="rect940-9-1"
       width="136.68405"
       height="22.785456"
       x="374.27869"
       y="160.59804" />
    <rect
       style="opacity:0.416856;fill:#008080;fill-opacity:0.556381;stroke:#cbe4f9;stroke-width:0;stroke-opacity:0.984314"
       id="rect10-6"
       width="137.40237"
       height="93.195595"
       x="373.72607"
       y="136.35876" />
    <rect
       style="opacity:0.990172;fill:#008080;fill-opacity:1;stroke:#cbe4f9;stroke-width:0;stroke-opacity:0.984314"
       id="rect940-9-1-9"
       width="136.68405"
       height="22.785456"
       x="73.857895"
       y="198.71219" />
    <text
       xml:space="preserve"
       style="font-style:normal;font-weight:normal;font-size:10.5833px;line-height:1.25;font-family:sans-serif;letter-spacing:0px;word-spacing:0px;fill:#000000;fill-opacity:1;stroke:none;stroke-width:0.264583"
       x="395.12207"
       y="175.00191"
       id="text1720"><tspan
         sodipodi:role="line"
         id="tspan1718"
         x="395.12207"
         y="175.00191"
         style="fill:#f9f9f9;stroke-width:0.264583">Atomistic  (MD-DFT)</tspan></text>
    <text
       xml:space="preserve"
       style="font-style:normal;font-weight:normal;font-size:10.5833px;line-height:1.25;font-family:sans-serif;letter-spacing:0px;word-spacing:0px;fill:#ffff00;fill-opacity:1;stroke:none;stroke-width:0.264583"
       x="571.27423"
       y="83.735191"
       id="text1724"><tspan
         id="tspan1722"
         x="571.27423"
         y="83.735191"
         style="fill:#ffff00;stroke-width:0.264583"
         sodipodi:role="line" /><tspan
         x="571.27423"
         y="96.964317"
         style="font-size:7.05556px;fill:#ffff00;stroke-width:0.264583"
         id="tspan1728"
         sodipodi:role="line">1- Elastic Constant and bulk modules  </tspan><tspan
         x="571.27423"
         y="110.19344"
         style="font-size:7.05556px;fill:#ffff00;stroke-width:0.264583"
         id="tspan1730"
         sodipodi:role="line">2- Thermal Conductivities</tspan><tspan
         x="571.27423"
         y="123.42256"
         style="font-size:7.05556px;fill:#ffff00;stroke-width:0.264583"
         sodipodi:role="line"
         id="tspan1734">3- Diffusion Coef.</tspan><tspan
         x="571.27423"
         y="136.65169"
         style="font-size:7.05556px;fill:#ffff00;stroke-width:0.264583"
         sodipodi:role="line"
         id="tspan1986">4- Grain boundary energy</tspan></text>
    <rect
       style="opacity:0.990172;fill:#800000;fill-opacity:1;stroke:#cbe4f9;stroke-width:0;stroke-opacity:0.984314"
       id="rect41-0"
       width="151.7222"
       height="13.062713"
       x="563.49854"
       y="73.923409" />
    <text
       xml:space="preserve"
       style="font-style:normal;font-weight:normal;font-size:10.5833px;line-height:1.25;font-family:sans-serif;letter-spacing:0px;word-spacing:0px;fill:#ffd5d5;fill-opacity:1;stroke:none;stroke-width:0.264583"
       x="570.27368"
       y="83.705956"
       id="text1758"><tspan
         sodipodi:role="line"
         id="tspan1756"
         x="570.27368"
         y="83.705956"
         style="fill:#ffd5d5;stroke-width:0.264583">Density Functional Theory</tspan></text>
    <rect
       style="opacity:0.416856;fill:#008080;fill-opacity:0.556381;stroke:#cbe4f9;stroke-width:0;stroke-opacity:0.984314"
       id="rect10-6-6"
       width="96.821182"
       height="136.37805"
       x="356.76736"
       y="333.47778" />
    <rect
       style="opacity:0.990172;fill:#800000;fill-opacity:1;stroke:#cbe4f9;stroke-width:0;stroke-opacity:0.984314"
       id="rect41-1"
       width="96.385033"
       height="13.062713"
       x="356.76736"
       y="341.41541" />
    <text
       xml:space="preserve"
       style="font-style:normal;font-weight:normal;font-size:10.5833px;line-height:1.25;font-family:sans-serif;letter-spacing:0px;word-spacing:0px;fill:#ffffff;fill-opacity:1;stroke:none;stroke-width:0.264583"
       x="375.63559"
       y="351.55295"
       id="text2070"><tspan
         sodipodi:role="line"
         id="tspan2068"
         x="375.63559"
         y="351.55295"
         style="fill:#ffffff;stroke-width:0.264583">Methods</tspan></text>
    <path
       style="fill:none;fill-opacity:1;stroke:#008080;stroke-width:3.3573;stroke-linecap:round;stroke-linejoin:bevel;stroke-miterlimit:4;stroke-dasharray:none;stroke-opacity:0.992157"
       d="M 226.41116,303.16647 H 151.4006 l 0.0238,-75.90868"
       id="path1100-2"
       sodipodi:nodetypes="ccc" />
    <rect
       style="opacity:0.990172;fill:#008080;fill-opacity:1;stroke:#cbe4f9;stroke-width:0;stroke-opacity:0.984314"
       id="rect940-6-1-8-2-9"
       width="151.25729"
       height="145.55809"
       x="45.090553"
       y="293.6116"
       ry="13.526575" />
    <rect
       style="opacity:0.990172;fill:#800000;fill-opacity:1;stroke:#cbe4f9;stroke-width:0;stroke-opacity:0.984314"
       id="rect41-3"
       width="151.29031"
       height="16.776667"
       x="44.89196"
       y="306.19617" />
    <text
       xml:space="preserve"
       style="font-style:normal;font-weight:normal;font-size:10.5833px;line-height:1.25;font-family:sans-serif;letter-spacing:0px;word-spacing:0px;fill:#f9f9f9;fill-opacity:1;stroke:none;stroke-width:0.264583"
       x="86.919502"
       y="317.27338"
       id="text2154"><tspan
         sodipodi:role="line"
         id="tspan2152"
         x="86.919502"
         y="317.27338"
         style="fill:#f9f9f9;stroke-width:0.264583">Properties</tspan></text>
    <path
       style="fill:none;fill-opacity:1;stroke:#008080;stroke-width:2.42571;stroke-linecap:round;stroke-linejoin:bevel;stroke-miterlimit:4;stroke-dasharray:none;stroke-opacity:0.992157"
       d="m 356.61449,290.46361 h 49.54956 l -0.0157,-59.98883"
       id="path1100-2-1"
       sodipodi:nodetypes="ccc" />
    <g
       id="g2189"
       transform="translate(69.197269,69.242444)">
      <rect
         style="opacity:0.990172;fill:#f9f9f9;fill-opacity:1;stroke:#008080;stroke-width:3;stroke-linecap:round;stroke-linejoin:round;stroke-miterlimit:4;stroke-dasharray:none;stroke-opacity:0.992157"
         id="rect2178"
         width="100.63413"
         height="105.59786"
         x="-151.70183"
         y="234.82942" />
    </g>
    <text
       xml:space="preserve"
       style="font-style:normal;font-weight:normal;font-size:10.5833px;line-height:1.25;font-family:sans-serif;letter-spacing:0px;word-spacing:0px;fill:#000000;fill-opacity:1;stroke:none;stroke-width:0.264583"
       x="-50.435646"
       y="346.12216"
       id="text2182"><tspan
         sodipodi:role="line"
         id="tspan2180"
         x="-50.435646"
         y="346.12216"
         style="stroke-width:0.264583">Other</tspan><tspan
         sodipodi:role="line"
         x="-50.435646"
         y="359.35129"
         style="stroke-width:0.264583"
         id="tspan2184" /><tspan
         sodipodi:role="line"
         x="-50.435646"
         y="372.58041"
         style="stroke-width:0.264583"
         id="tspan2186">Scales   ?</tspan></text>
    <path
       style="fill:none;stroke:#008080;stroke-width:2.82475;stroke-linecap:round;stroke-linejoin:round;stroke-miterlimit:4;stroke-dasharray:none;stroke-opacity:0.992157;marker-end:url(#Arrow2Mend-9)"
       d="m 73.857895,221.49765 -108.474158,-3.15404 v 0 l 2.768442,110.59618"
       id="path1110-7"
       sodipodi:nodetypes="cccc" />
    <text
       xml:space="preserve"
       style="font-style:normal;font-weight:normal;font-size:10.5833px;line-height:1.25;font-family:sans-serif;letter-spacing:0px;word-spacing:0px;fill:#000000;fill-opacity:1;stroke:none;stroke-width:0.264583"
       x="365.0155"
       y="357.27902"
       id="text2295"><tspan
         sodipodi:role="line"
         id="tspan2293"
         x="365.0155"
         y="357.27902"
         style="stroke-width:0.264583" /><tspan
         sodipodi:role="line"
         x="365.0155"
         y="370.50815"
         style="stroke-width:0.264583"
         id="tspan2297">1- GBE-Calc</tspan><tspan
         sodipodi:role="line"
         x="365.0155"
         y="383.73727"
         style="stroke-width:0.264583"
         id="tspan2299">2- Diff Calc</tspan><tspan
         sodipodi:role="line"
         x="365.0155"
         y="396.9664"
         style="stroke-width:0.264583"
         id="tspan2301">3- Elast Calc</tspan><tspan
         sodipodi:role="line"
         x="365.0155"
         y="410.19553"
         style="stroke-width:0.264583"
         id="tspan2303">4- Thermal Calc</tspan><tspan
         sodipodi:role="line"
         x="365.0155"
         y="423.42465"
         style="stroke-width:0.264583"
         id="tspan2305">5- Defect Calc</tspan></text>
    <rect
       style="fill:#cccccc;fill-opacity:0.992157;stroke-width:0.240556"
       id="rect2373"
       width="142.82425"
       height="19.717213"
       x="49.379612"
       y="326.67706" />
    <rect
       style="fill:#cccccc;fill-opacity:0.992157;stroke-width:0.240556"
       id="rect2373-7"
       width="142.82425"
       height="19.717213"
       x="48.995441"
       y="349.24265" />
    <rect
       style="fill:#cccccc;fill-opacity:0.992157;stroke-width:0.240556"
       id="rect2373-7-5"
       width="142.82425"
       height="19.717213"
       x="48.995441"
       y="415.12677" />
    <rect
       style="fill:#cccccc;fill-opacity:0.992157;stroke-width:0.240556"
       id="rect2373-7-3"
       width="142.82425"
       height="19.717213"
       x="48.995441"
       y="371.07657" />
    <rect
       style="fill:#cccccc;fill-opacity:0.992157;stroke-width:0.240556"
       id="rect2373-7-56"
       width="142.82425"
       height="19.717213"
       x="48.995441"
       y="393.29285" />
    <text
       xml:space="preserve"
       style="font-style:normal;font-weight:normal;font-size:10.5833px;line-height:1.25;font-family:sans-serif;fill:#000000;fill-opacity:1;stroke:none;stroke-width:0.264583"
       x="65.894592"
       y="339.89664"
       id="text4503"><tspan
         sodipodi:role="line"
         id="tspan4501"
         style="stroke-width:0.264583"
         x="65.894592"
         y="339.89664">Thermal Conductivity</tspan></text>
    <text
       xml:space="preserve"
       style="font-style:normal;font-weight:normal;font-size:10.5833px;line-height:1.25;font-family:sans-serif;fill:#000000;fill-opacity:1;stroke:none;stroke-width:0.264583"
       x="64.606659"
       y="362.34546"
       id="text4503-2"><tspan
         sodipodi:role="line"
         id="tspan4501-9"
         style="stroke-width:0.264583"
         x="64.606659"
         y="362.34546">Defect Diffusivity</tspan></text>
    <text
       xml:space="preserve"
       style="font-style:normal;font-weight:normal;font-size:10.5833px;line-height:1.25;font-family:sans-serif;fill:#000000;fill-opacity:1;stroke:none;stroke-width:0.264583"
       x="66.332169"
       y="384.10089"
       id="text4503-2-1"><tspan
         sodipodi:role="line"
         id="tspan4501-9-2"
         style="stroke-width:0.264583"
         x="66.332169"
         y="384.10089">FG  Diffusivity</tspan></text>
    <text
       xml:space="preserve"
       style="font-style:normal;font-weight:normal;font-size:10.5833px;line-height:1.25;font-family:sans-serif;fill:#000000;fill-opacity:1;stroke:none;stroke-width:0.264583"
       x="66.182114"
       y="406.31351"
       id="text16701"><tspan
         sodipodi:role="line"
         id="tspan16699"
         style="stroke-width:0.264583"
         x="66.182114"
         y="406.31351">Elastic constants</tspan></text>
    <text
       xml:space="preserve"
       style="font-style:normal;font-weight:normal;font-size:10.5833px;line-height:1.25;font-family:sans-serif;fill:#000000;fill-opacity:1;stroke:none;stroke-width:0.264583"
       x="69.00692"
       y="414.26474"
       id="text18853"><tspan
         sodipodi:role="line"
         id="tspan18851"
         style="stroke-width:0.264583"
         x="69.00692"
         y="414.26474" /><tspan
         sodipodi:role="line"
         style="stroke-width:0.264583"
         x="69.00692"
         y="427.49387"
         id="tspan18855">Formation Energy</tspan></text>
    <rect
       style="fill:#cccccc;fill-opacity:0.992157;stroke-width:0.286065"
       id="rect20446"
       width="154.6398"
       height="250.89313"
       x="-76.029053"
       y="519.22784" />
    <text
       xml:space="preserve"
       style="font-style:normal;font-weight:normal;font-size:10.5833px;line-height:1.25;font-family:sans-serif;fill:#000000;fill-opacity:1;stroke:none;stroke-width:0.264583"
       x="-67.35939"
       y="506.16388"
       id="text22268"><tspan
         sodipodi:role="line"
         id="tspan22266"
         style="stroke-width:0.264583"
         x="-67.35939"
         y="506.16388"></tspan><tspan
         sodipodi:role="line"
         style="stroke-width:0.264583"
         id="tspan22270"
         x="-67.35939"
         y="519.39301" /><tspan
         sodipodi:role="line"
         style="stroke-width:0.264583"
         x="-67.35939"
         y="532.62213"
         id="tspan22272" /></text>
    <rect
       style="fill:#800000;fill-opacity:0.992157;stroke-width:0.264583"
       id="rect26798"
       width="196.04964"
       height="43.381561"
       x="-93.534546"
       y="529.62146" />
    <text
       xml:space="preserve"
       style="font-style:normal;font-weight:normal;font-size:17.6389px;line-height:1.25;font-family:sans-serif;fill:#ffffff;fill-opacity:1;stroke:none;stroke-width:0.264583"
       x="-82.4114"
       y="556.25763"
       id="text28496"><tspan
         sodipodi:role="line"
         id="tspan28494"
         style="font-size:17.6389px;fill:#ffffff;stroke-width:0.264583"
         x="-82.4114"
         y="556.25763">DataBase Functions</tspan></text>
    <rect
       style="fill:#cccccc;fill-opacity:0.992157;stroke-width:0.286065"
       id="rect20446-6"
       width="154.6398"
       height="250.89313"
       x="132.19133"
       y="519.22791" />
    <rect
       style="fill:#800000;fill-opacity:0.992157;stroke-width:0.264583"
       id="rect26798-0"
       width="196.04964"
       height="43.381561"
       x="114.68594"
       y="529.62152" />
    <text
       xml:space="preserve"
       style="font-style:normal;font-weight:normal;font-size:17.6389px;line-height:1.25;font-family:sans-serif;fill:#ffffff;fill-opacity:1;stroke:none;stroke-width:0.264583"
       x="125.80906"
       y="556.25769"
       id="text28496-6"><tspan
         sodipodi:role="line"
         id="tspan28494-2"
         style="font-size:17.6389px;fill:#ffffff;stroke-width:0.264583"
         x="125.80906"
         y="556.25769">Convertor Functions</tspan></text>
    <rect
       style="fill:#cccccc;fill-opacity:0.992157;stroke-width:0.286065"
       id="rect20446-6-6"
       width="154.6398"
       height="250.89313"
       x="339.88193"
       y="519.22791" />
    <rect
       style="fill:#800000;fill-opacity:0.992157;stroke-width:0.264583"
       id="rect26798-0-1"
       width="196.04964"
       height="43.381561"
       x="322.37671"
       y="529.62152" />
    <text
       xml:space="preserve"
       style="font-style:normal;font-weight:normal;font-size:17.6389px;line-height:1.25;font-family:sans-serif;fill:#ffffff;fill-opacity:1;stroke:none;stroke-width:0.264583"
       x="333.49969"
       y="556.25769"
       id="text28496-6-8"><tspan
         sodipodi:role="line"
         id="tspan28494-2-7"
         style="font-size:17.6389px;fill:#ffffff;stroke-width:0.264583"
         x="333.49969"
         y="556.25769">Calculator Fuctions</tspan></text>
    <rect
       style="fill:#cccccc;fill-opacity:0.992157;stroke-width:0.286065"
       id="rect20446-6-9"
       width="154.6398"
       height="250.89313"
       x="549.16089"
       y="519.22784" />
    <rect
       style="fill:#800000;fill-opacity:0.992157;stroke-width:0.264583"
       id="rect26798-0-2"
       width="196.04964"
       height="43.381561"
       x="531.6557"
       y="529.62146" />
    <text
       xml:space="preserve"
       style="font-style:normal;font-weight:normal;font-size:17.6389px;line-height:1.25;font-family:sans-serif;fill:#ffffff;fill-opacity:1;stroke:none;stroke-width:0.264583"
       x="535.37024"
       y="556.25763"
       id="text28496-6-0"><tspan
         sodipodi:role="line"
         id="tspan28494-2-2"
         style="font-size:17.6389px;fill:#ffffff;stroke-width:0.264583"
         x="535.37024"
         y="556.25763">Post-Process Functions</tspan></text>
    <text
       xml:space="preserve"
       transform="matrix(0.26458333,0,0,0.26458333,-84.004559,54.813284)"
       id="text47600"
       style="font-style:normal;font-weight:normal;font-size:40px;line-height:1.25;font-family:sans-serif;white-space:pre;shape-inside:url(#rect47602);fill:#000000;fill-opacity:1;stroke:none" />
    <text
       xml:space="preserve"
       style="font-style:normal;font-weight:normal;font-size:14.1111px;line-height:1.25;font-family:sans-serif;fill:#000000;fill-opacity:1;stroke:none;stroke-width:0.264583"
       x="-71.519615"
       y="599.88892"
       id="text52330"><tspan
         sodipodi:role="line"
         id="tspan52328"
         style="font-size:14.1111px;stroke-width:0.264583"
         x="-71.519615"
         y="599.88892">1-  CIF2DB</tspan><tspan
         sodipodi:role="line"
         style="font-size:14.1111px;stroke-width:0.264583"
         x="-71.519615"
         y="617.52777"
         id="tspan52332">2-  CIFGROUP2DB</tspan><tspan
         sodipodi:role="line"
         style="font-size:14.1111px;stroke-width:0.264583"
         x="-71.519615"
         y="635.16669"
         id="tspan52334">3-  SEARCHDB</tspan><tspan
         sodipodi:role="line"
         style="font-size:14.1111px;stroke-width:0.264583"
         x="-71.519615"
         y="652.80554"
         id="tspan52336">4-  ADDCOL2DB</tspan><tspan
         sodipodi:role="line"
         style="font-size:14.1111px;stroke-width:0.264583"
         x="-71.519615"
         y="670.4444"
         id="tspan52338">5-  UPDATEDB</tspan><tspan
         sodipodi:role="line"
         style="font-size:14.1111px;stroke-width:0.264583"
         x="-71.519615"
         y="688.08331"
         id="tspan52340">6-  output2DB (4)</tspan><tspan
         sodipodi:role="line"
         style="font-size:14.1111px;stroke-width:0.264583"
         x="-71.519615"
         y="705.72217"
         id="tspan52342">7-  Creat - MP- tab</tspan><tspan
         sodipodi:role="line"
         style="font-size:14.1111px;stroke-width:0.264583"
         x="-71.519615"
         y="723.36102"
         id="tspan52344">8-  </tspan><tspan
         sodipodi:role="line"
         style="font-size:14.1111px;stroke-width:0.264583"
         x="-71.519615"
         y="740.99994"
         id="tspan52346">9-</tspan><tspan
         sodipodi:role="line"
         style="font-size:14.1111px;stroke-width:0.264583"
         x="-71.519615"
         y="758.63879"
         id="tspan52348">10-</tspan></text>
    <text
       xml:space="preserve"
       style="font-style:normal;font-weight:normal;font-size:14.1111px;line-height:1.25;font-family:sans-serif;fill:#000000;fill-opacity:1;stroke:none;stroke-width:0.264583"
       x="347.10507"
       y="595.57843"
       id="text52330-3"><tspan
         sodipodi:role="line"
         id="tspan52328-7"
         style="font-size:14.1111px;stroke-width:0.264583"
         x="347.10507"
         y="595.57843">1- DB2QEINP </tspan><tspan
         sodipodi:role="line"
         style="font-size:14.1111px;stroke-width:0.264583"
         x="347.10507"
         y="613.21729"
         id="tspan52332-5">2- DB2ABINITINP</tspan><tspan
         sodipodi:role="line"
         style="font-size:14.1111px;stroke-width:0.264583"
         x="347.10507"
         y="630.8562"
         id="tspan52334-9">3- DB2WIEN2KINP  </tspan><tspan
         sodipodi:role="line"
         style="font-size:14.1111px;stroke-width:0.264583"
         x="347.10507"
         y="648.49506"
         id="tspan52336-2">4- DB2LAMMPSINP</tspan><tspan
         sodipodi:role="line"
         style="font-size:14.1111px;stroke-width:0.264583"
         x="347.10507"
         y="666.13391"
         id="tspan52338-2">5-  </tspan><tspan
         sodipodi:role="line"
         style="font-size:14.1111px;stroke-width:0.264583"
         x="347.10507"
         y="683.77283"
         id="tspan52340-8">6-  </tspan><tspan
         sodipodi:role="line"
         style="font-size:14.1111px;stroke-width:0.264583"
         x="347.10507"
         y="701.41168"
         id="tspan52342-9">7-  </tspan><tspan
         sodipodi:role="line"
         style="font-size:14.1111px;stroke-width:0.264583"
         x="347.10507"
         y="719.05054"
         id="tspan52344-7">8-  </tspan><tspan
         sodipodi:role="line"
         style="font-size:14.1111px;stroke-width:0.264583"
         x="347.10507"
         y="736.68945"
         id="tspan52346-3">9-</tspan><tspan
         sodipodi:role="line"
         style="font-size:14.1111px;stroke-width:0.264583"
         x="347.10507"
         y="754.32831"
         id="tspan52348-6">10-</tspan></text>
    <text
       xml:space="preserve"
       style="font-style:normal;font-weight:normal;font-size:14.1111px;line-height:1.25;font-family:sans-serif;fill:#000000;fill-opacity:1;stroke:none;stroke-width:0.264583"
       x="143.59944"
       y="600.4635"
       id="text52330-3-1"><tspan
         sodipodi:role="line"
         id="tspan52328-7-2"
         style="font-size:14.1111px;stroke-width:0.264583"
         x="143.59944"
         y="600.4635">1- DB2QEINP </tspan><tspan
         sodipodi:role="line"
         style="font-size:14.1111px;stroke-width:0.264583"
         x="143.59944"
         y="618.10236"
         id="tspan52332-5-9">2- DB2ABINITINP</tspan><tspan
         sodipodi:role="line"
         style="font-size:14.1111px;stroke-width:0.264583"
         x="143.59944"
         y="635.74127"
         id="tspan52334-9-3">3- DB2WIEN2KINP  </tspan><tspan
         sodipodi:role="line"
         style="font-size:14.1111px;stroke-width:0.264583"
         x="143.59944"
         y="653.38013"
         id="tspan52336-2-1">4- DB2LAMMPSINP</tspan><tspan
         sodipodi:role="line"
         style="font-size:14.1111px;stroke-width:0.264583"
         x="143.59944"
         y="671.01898"
         id="tspan52338-2-9">5-  </tspan><tspan
         sodipodi:role="line"
         style="font-size:14.1111px;stroke-width:0.264583"
         x="143.59944"
         y="688.6579"
         id="tspan52340-8-4">6-  </tspan><tspan
         sodipodi:role="line"
         style="font-size:14.1111px;stroke-width:0.264583"
         x="143.59944"
         y="706.29675"
         id="tspan52342-9-7">7-  </tspan><tspan
         sodipodi:role="line"
         style="font-size:14.1111px;stroke-width:0.264583"
         x="143.59944"
         y="723.93561"
         id="tspan52344-7-8">8-  </tspan><tspan
         sodipodi:role="line"
         style="font-size:14.1111px;stroke-width:0.264583"
         x="143.59944"
         y="741.57452"
         id="tspan52346-3-4">9-</tspan><tspan
         sodipodi:role="line"
         style="font-size:14.1111px;stroke-width:0.264583"
         x="143.59944"
         y="759.21338"
         id="tspan52348-6-5">10-</tspan></text>
  </g>
</svg>
